<svg class="border shadow-md dark:border-slate-700" viewBox="0 0 1267.2 633.6" xmlns="http://www.w3.org/2000/svg" preserveAspectRatio="none" style="width: 1267.2px; height: 633.6px;"><rect class="bg" id="bg" x="0" y="0" width="1267.2" height="633.6" fill="#ffffff"/><path d="M 0 -12.672 L 0 -12.67&#10;                L 92.00 -1.67&#10;                L 140.8 -12.67 L 140.8 -12.67&#10;                L 187.73 -4.67&#10;                L 281.6 -12.67 L 281.6 -12.67&#10;                L 331.60 -1.67&#10;                L 422.40000000000003 -12.67 L 422.40000000000003 -12.67&#10;                L 469.33 -6.34&#10;                L 563.2 -12.67 L 563.2 -12.67&#10;                L 663.20 -6.34&#10;                L 704 -12.67 L 704 -12.67&#10;                L 783.00 -4.67&#10;                L 844.8 -12.67 L 844.8000000000001 -12.67&#10;                L 899.80 -5.67&#10;                L 985.6000000000001 -12.67 L 985.6000000000001 -12.67&#10;                L 1032.53 -5.67&#10;                L 1126.4 -12.67 L 1126.4 -12.67&#10;                L 1173.33 -4.67&#10;                L 1267.2 -12.67 L 1267.2 -12.67&#10;                L 1314.13 -5.67&#10;                L 1408 -12.67  V 633.60 H 0 V -12.67 Z" fill="#280050"/><path d="M 0 0 L 0 0.00&#10;                L 88.00 7.00&#10;                L 140.8 0.00 L 140.8 0.00&#10;                L 202.80 6.34&#10;                L 281.6 0.00 L 281.6 0.00&#10;                L 328.53 10.00&#10;                L 422.40000000000003 0.00 L 422.40000000000003 0.00&#10;                L 469.33 12.00&#10;                L 563.2 0.00 L 563.2 0.00&#10;                L 640.20 6.34&#10;                L 704 0.00 L 704 0.00&#10;                L 750.93 11.00&#10;                L 844.8 0.00 L 844.8000000000001 0.00&#10;                L 907.80 6.34&#10;                L 985.6000000000001 0.00 L 985.6000000000001 0.00&#10;                L 1073.60 6.34&#10;                L 1126.4 0.00 L 1126.4 0.00&#10;                L 1190.40 10.00&#10;                L 1267.2 0.00 L 1267.2 0.00&#10;                L 1314.13 6.34&#10;                L 1408 0.00  V 633.60 H 0 V 0.00 Z" fill="#2c0453"/><path d="M 0 12.672 L 0 12.67&#10;                L 87.00 19.67&#10;                L 140.8 12.67 L 140.8 12.67&#10;                L 187.73 19.01&#10;                L 281.6 12.67 L 281.6 12.67&#10;                L 366.60 22.67&#10;                L 422.40000000000003 12.67 L 422.40000000000003 12.67&#10;                L 469.33 24.67&#10;                L 563.2 12.67 L 563.2 12.67&#10;                L 617.20 24.67&#10;                L 704 12.67 L 704 12.67&#10;                L 786.00 21.67&#10;                L 844.8 12.67 L 844.8000000000001 12.67&#10;                L 933.80 24.67&#10;                L 985.6000000000001 12.67 L 985.6000000000001 12.67&#10;                L 1077.60 23.67&#10;                L 1126.4 12.67 L 1126.4 12.67&#10;                L 1198.40 19.01&#10;                L 1267.2 12.67 L 1267.2 12.67&#10;                L 1320.20 21.67&#10;                L 1408 12.67  V 633.60 H 0 V 12.67 Z" fill="#300856"/><path d="M 0 25.344 L 0 25.34&#10;                L 100.00 31.68&#10;                L 140.8 25.34 L 140.8 25.34&#10;                L 187.73 31.68&#10;                L 281.6 25.34 L 281.6 25.34&#10;                L 331.60 31.68&#10;                L 422.40000000000003 25.34 L 422.40000000000003 25.34&#10;                L 469.33 32.34&#10;                L 563.2 25.34 L 563.2 25.34&#10;                L 610.13 36.34&#10;                L 704 25.34 L 704 25.34&#10;                L 750.93 31.68&#10;                L 844.8 25.34 L 844.8000000000001 25.34&#10;                L 928.80 31.68&#10;                L 985.6000000000001 25.34 L 985.6000000000001 25.34&#10;                L 1032.53 31.68&#10;                L 1126.4 25.34 L 1126.4 25.34&#10;                L 1216.40 31.68&#10;                L 1267.2 25.34 L 1267.2 25.34&#10;                L 1338.20 35.34&#10;                L 1408 25.34  V 633.60 H 0 V 25.34 Z" fill="#340c59"/><path d="M 0 38.016000000000005 L 0 38.02&#10;                L 91.00 48.02&#10;                L 140.8 38.02 L 140.8 38.02&#10;                L 203.80 47.02&#10;                L 281.6 38.02 L 281.6 38.02&#10;                L 328.53 44.35&#10;                L 422.40000000000003 38.02 L 422.40000000000003 38.02&#10;                L 522.40 44.35&#10;                L 563.2 38.02 L 563.2 38.02&#10;                L 610.13 49.02&#10;                L 704 38.02 L 704 38.02&#10;                L 750.93 44.35&#10;                L 844.8 38.02 L 844.8000000000001 38.02&#10;                L 891.73 46.02&#10;                L 985.6000000000001 38.02 L 985.6000000000001 38.02&#10;                L 1043.60 44.35&#10;                L 1126.4 38.02 L 1126.4 38.02&#10;                L 1219.40 50.02&#10;                L 1267.2 38.02 L 1267.2 38.02&#10;                L 1339.20 49.02&#10;                L 1408 38.02  V 633.60 H 0 V 38.02 Z" fill="#38105c"/><path d="M 0 50.688 L 0 50.69&#10;                L 46.93 57.02&#10;                L 140.8 50.69 L 140.8 50.69&#10;                L 187.73 57.02&#10;                L 281.6 50.69 L 281.6 50.69&#10;                L 342.60 57.02&#10;                L 422.40000000000003 50.69 L 422.40000000000003 50.69&#10;                L 469.33 57.02&#10;                L 563.2 50.69 L 563.2 50.69&#10;                L 657.20 58.69&#10;                L 704 50.69 L 704 50.69&#10;                L 750.93 57.02&#10;                L 844.8 50.69 L 844.8000000000001 50.69&#10;                L 914.80 57.02&#10;                L 985.6000000000001 50.69 L 985.6000000000001 50.69&#10;                L 1077.60 59.69&#10;                L 1126.4 50.69 L 1126.4 50.69&#10;                L 1192.40 59.69&#10;                L 1267.2 50.69 L 1267.2 50.69&#10;                L 1317.20 60.69&#10;                L 1408 50.69  V 633.60 H 0 V 50.69 Z" fill="#3c145f"/><path d="M 0 63.36 L 0 63.36&#10;                L 46.93 75.36&#10;                L 140.8 63.36 L 140.8 63.36&#10;                L 192.80 72.36&#10;                L 281.6 63.36 L 281.6 63.36&#10;                L 356.60 69.70&#10;                L 422.40000000000003 63.36 L 422.40000000000003 63.36&#10;                L 469.33 69.70&#10;                L 563.2 63.36 L 563.2 63.36&#10;                L 648.20 70.36&#10;                L 704 63.36 L 704 63.36&#10;                L 750.93 73.36&#10;                L 844.8 63.36 L 844.8000000000001 63.36&#10;                L 905.80 73.36&#10;                L 985.6000000000001 63.36 L 985.6000000000001 63.36&#10;                L 1032.53 69.70&#10;                L 1126.4 63.36 L 1126.4 63.36&#10;                L 1173.33 70.36&#10;                L 1267.2 63.36 L 1267.2 63.36&#10;                L 1342.20 69.70&#10;                L 1408 63.36  V 633.60 H 0 V 63.36 Z" fill="#401862"/><path d="M 0 76.03200000000001 L 0 76.03&#10;                L 63.00 82.37&#10;                L 140.8 76.03 L 140.8 76.03&#10;                L 192.80 82.37&#10;                L 281.6 76.03 L 281.6 76.03&#10;                L 366.60 82.37&#10;                L 422.40000000000003 76.03 L 422.40000000000003 76.03&#10;                L 469.33 82.37&#10;                L 563.2 76.03 L 563.2 76.03&#10;                L 667.20 82.37&#10;                L 704 76.03 L 704 76.03&#10;                L 750.93 85.03&#10;                L 844.8 76.03 L 844.8000000000001 76.03&#10;                L 921.80 82.37&#10;                L 985.6000000000001 76.03 L 985.6000000000001 76.03&#10;                L 1074.60 87.03&#10;                L 1126.4 76.03 L 1126.4 76.03&#10;                L 1173.33 82.37&#10;                L 1267.2 76.03 L 1267.2 76.03&#10;                L 1366.20 82.37&#10;                L 1408 76.03  V 633.60 H 0 V 76.03 Z" fill="#441c65"/><path d="M 0 88.70400000000001 L 0 88.70&#10;                L 46.93 95.04&#10;                L 140.8 88.70 L 140.8 88.70&#10;                L 236.80 95.04&#10;                L 281.6 88.70 L 281.6 88.70&#10;                L 363.60 95.04&#10;                L 422.40000000000003 88.70 L 422.40000000000003 88.70&#10;                L 469.33 95.04&#10;                L 563.2 88.70 L 563.2 88.70&#10;                L 610.13 97.70&#10;                L 704 88.70 L 704 88.70&#10;                L 769.00 95.04&#10;                L 844.8 88.70 L 844.8000000000001 88.70&#10;                L 891.73 96.70&#10;                L 985.6000000000001 88.70 L 985.6000000000001 88.70&#10;                L 1079.60 95.04&#10;                L 1126.4 88.70 L 1126.4 88.70&#10;                L 1212.40 95.04&#10;                L 1267.2 88.70 L 1267.2 88.70&#10;                L 1341.20 95.04&#10;                L 1408 88.70  V 633.60 H 0 V 88.70 Z" fill="#482068"/><path d="M 0 101.376 L 0 101.38&#10;                L 46.93 109.38&#10;                L 140.8 101.38 L 140.8 101.38&#10;                L 187.73 108.38&#10;                L 281.6 101.38 L 281.6 101.38&#10;                L 328.53 109.38&#10;                L 422.40000000000003 101.38 L 422.40000000000003 101.38&#10;                L 469.33 109.38&#10;                L 563.2 101.38 L 563.2 101.38&#10;                L 654.20 112.38&#10;                L 704 101.38 L 704 101.38&#10;                L 752.00 111.38&#10;                L 844.8 101.38 L 844.8000000000001 101.38&#10;                L 912.80 107.71&#10;                L 985.6000000000001 101.38 L 985.6000000000001 101.38&#10;                L 1032.53 112.38&#10;                L 1126.4 101.38 L 1126.4 101.38&#10;                L 1208.40 107.71&#10;                L 1267.2 101.38 L 1267.2 101.38&#10;                L 1314.13 107.71&#10;                L 1408 101.38  V 633.60 H 0 V 101.38 Z" fill="#4c246b"/><path d="M 0 114.048 L 0 114.05&#10;                L 46.93 122.05&#10;                L 140.8 114.05 L 140.8 114.05&#10;                L 187.73 122.05&#10;                L 281.6 114.05 L 281.6 114.05&#10;                L 329.60 124.05&#10;                L 422.40000000000003 114.05 L 422.40000000000003 114.05&#10;                L 469.33 120.38&#10;                L 563.2 114.05 L 563.2 114.05&#10;                L 610.13 121.05&#10;                L 704 114.05 L 704 114.05&#10;                L 780.00 121.05&#10;                L 844.8 114.05 L 844.8000000000001 114.05&#10;                L 891.73 120.38&#10;                L 985.6000000000001 114.05 L 985.6000000000001 114.05&#10;                L 1032.53 121.05&#10;                L 1126.4 114.05 L 1126.4 114.05&#10;                L 1211.40 120.38&#10;                L 1267.2 114.05 L 1267.2 114.05&#10;                L 1350.20 120.38&#10;                L 1408 114.05  V 633.60 H 0 V 114.05 Z" fill="#50286e"/><path d="M 0 126.72 L 0 126.72&#10;                L 46.93 133.06&#10;                L 140.8 126.72 L 140.8 126.72&#10;                L 187.73 138.72&#10;                L 281.6 126.72 L 281.6 126.72&#10;                L 328.53 133.06&#10;                L 422.40000000000003 126.72 L 422.40000000000003 126.72&#10;                L 515.40 136.72&#10;                L 563.2 126.72 L 563.2 126.72&#10;                L 656.20 137.72&#10;                L 704 126.72 L 704 126.72&#10;                L 750.93 133.06&#10;                L 844.8 126.72 L 844.8000000000001 126.72&#10;                L 919.80 136.72&#10;                L 985.6000000000001 126.72 L 985.6000000000001 126.72&#10;                L 1032.53 133.72&#10;                L 1126.4 126.72 L 1126.4 126.72&#10;                L 1189.40 133.06&#10;                L 1267.2 126.72 L 1267.2 126.72&#10;                L 1339.20 137.72&#10;                L 1408 126.72  V 633.60 H 0 V 126.72 Z" fill="#542c71"/><path d="M 0 139.392 L 0 139.39&#10;                L 46.93 145.73&#10;                L 140.8 139.39 L 140.8 139.39&#10;                L 191.80 145.73&#10;                L 281.6 139.39 L 281.6 139.39&#10;                L 352.60 148.39&#10;                L 422.40000000000003 139.39 L 422.40000000000003 139.39&#10;                L 488.40 145.73&#10;                L 563.2 139.39 L 563.2 139.39&#10;                L 656.20 149.39&#10;                L 704 139.39 L 704 139.39&#10;                L 750.93 145.73&#10;                L 844.8 139.39 L 844.8000000000001 139.39&#10;                L 891.73 146.39&#10;                L 985.6000000000001 139.39 L 985.6000000000001 139.39&#10;                L 1032.53 151.39&#10;                L 1126.4 139.39 L 1126.4 139.39&#10;                L 1225.40 151.39&#10;                L 1267.2 139.39 L 1267.2 139.39&#10;                L 1345.20 151.39&#10;                L 1408 139.39  V 633.60 H 0 V 139.39 Z" fill="#583074"/><path d="M 0 152.06400000000002 L 0 152.06&#10;                L 46.93 158.40&#10;                L 140.8 152.06 L 140.8 152.06&#10;                L 213.80 159.06&#10;                L 281.6 152.06 L 281.6 152.06&#10;                L 342.60 158.40&#10;                L 422.40000000000003 152.06 L 422.40000000000003 152.06&#10;                L 486.40 158.40&#10;                L 563.2 152.06 L 563.2 152.06&#10;                L 610.13 158.40&#10;                L 704 152.06 L 704 152.06&#10;                L 750.93 160.06&#10;                L 844.8 152.06 L 844.8000000000001 152.06&#10;                L 910.80 158.40&#10;                L 985.6000000000001 152.06 L 985.6000000000001 152.06&#10;                L 1032.53 164.06&#10;                L 1126.4 152.06 L 1126.4 152.06&#10;                L 1187.40 158.40&#10;                L 1267.2 152.06 L 1267.2 152.06&#10;                L 1314.13 158.40&#10;                L 1408 152.06  V 633.60 H 0 V 152.06 Z" fill="#5c3477"/><path d="M 0 164.73600000000002 L 0 164.74&#10;                L 87.00 171.74&#10;                L 140.8 164.74 L 140.8 164.74&#10;                L 205.80 171.07&#10;                L 281.6 164.74 L 281.6 164.74&#10;                L 361.60 171.07&#10;                L 422.40000000000003 164.74 L 422.40000000000003 164.74&#10;                L 469.33 171.07&#10;                L 563.2 164.74 L 563.2 164.74&#10;                L 610.13 174.74&#10;                L 704 164.74 L 704 164.74&#10;                L 753.00 171.07&#10;                L 844.8 164.74 L 844.8000000000001 164.74&#10;                L 948.80 173.74&#10;                L 985.6000000000001 164.74 L 985.6000000000001 164.74&#10;                L 1032.53 171.07&#10;                L 1126.4 164.74 L 1126.4 164.74&#10;                L 1173.33 171.07&#10;                L 1267.2 164.74 L 1267.2 164.74&#10;                L 1314.13 171.07&#10;                L 1408 164.74  V 633.60 H 0 V 164.74 Z" fill="#60387a"/><path d="M 0 177.40800000000002 L 0 177.41&#10;                L 46.93 183.74&#10;                L 140.8 177.41 L 140.8 177.41&#10;                L 187.73 183.74&#10;                L 281.6 177.41 L 281.6 177.41&#10;                L 373.60 185.41&#10;                L 422.40000000000003 177.41 L 422.40000000000003 177.41&#10;                L 469.33 189.41&#10;                L 563.2 177.41 L 563.2 177.41&#10;                L 610.13 183.74&#10;                L 704 177.41 L 704 177.41&#10;                L 771.00 184.41&#10;                L 844.8 177.41 L 844.8000000000001 177.41&#10;                L 893.80 183.74&#10;                L 985.6000000000001 177.41 L 985.6000000000001 177.41&#10;                L 1032.53 187.41&#10;                L 1126.4 177.41 L 1126.4 177.41&#10;                L 1173.33 183.74&#10;                L 1267.2 177.41 L 1267.2 177.41&#10;                L 1316.20 186.41&#10;                L 1408 177.41  V 633.60 H 0 V 177.41 Z" fill="#643c7d"/><path d="M 0 190.08 L 0 190.08&#10;                L 72.00 198.08&#10;                L 140.8 190.08 L 140.8 190.08&#10;                L 245.80 196.42&#10;                L 281.6 190.08 L 281.6 190.08&#10;                L 328.53 196.42&#10;                L 422.40000000000003 190.08 L 422.40000000000003 190.08&#10;                L 478.40 196.42&#10;                L 563.2 190.08 L 563.2 190.08&#10;                L 640.20 198.08&#10;                L 704 190.08 L 704 190.08&#10;                L 750.93 196.42&#10;                L 844.8 190.08 L 844.8000000000001 190.08&#10;                L 919.80 196.42&#10;                L 985.6000000000001 190.08 L 985.6000000000001 190.08&#10;                L 1046.60 196.42&#10;                L 1126.4 190.08 L 1126.4 190.08&#10;                L 1173.33 202.08&#10;                L 1267.2 190.08 L 1267.2 190.08&#10;                L 1369.20 197.08&#10;                L 1408 190.08  V 633.60 H 0 V 190.08 Z" fill="#684080"/><path d="M 0 202.752 L 0 202.75&#10;                L 90.00 213.75&#10;                L 140.8 202.75 L 140.8 202.75&#10;                L 187.73 209.09&#10;                L 281.6 202.75 L 281.6 202.75&#10;                L 328.53 212.75&#10;                L 422.40000000000003 202.75 L 422.40000000000003 202.75&#10;                L 469.33 211.75&#10;                L 563.2 202.75 L 563.2 202.75&#10;                L 664.20 209.09&#10;                L 704 202.75 L 704 202.75&#10;                L 750.93 209.09&#10;                L 844.8 202.75 L 844.8000000000001 202.75&#10;                L 891.73 209.09&#10;                L 985.6000000000001 202.75 L 985.6000000000001 202.75&#10;                L 1034.60 213.75&#10;                L 1126.4 202.75 L 1126.4 202.75&#10;                L 1173.33 209.75&#10;                L 1267.2 202.75 L 1267.2 202.75&#10;                L 1320.20 212.75&#10;                L 1408 202.75  V 633.60 H 0 V 202.75 Z" fill="#6c4483"/><path d="M 0 215.424 L 0 215.42&#10;                L 88.00 226.42&#10;                L 140.8 215.42 L 140.8 215.42&#10;                L 187.73 225.42&#10;                L 281.6 215.42 L 281.6 215.42&#10;                L 341.60 221.76&#10;                L 422.40000000000003 215.42 L 422.40000000000003 215.42&#10;                L 469.33 221.76&#10;                L 563.2 215.42 L 563.2 215.42&#10;                L 628.20 223.42&#10;                L 704 215.42 L 704 215.42&#10;                L 750.93 222.42&#10;                L 844.8 215.42 L 844.8000000000001 215.42&#10;                L 892.80 221.76&#10;                L 985.6000000000001 215.42 L 985.6000000000001 215.42&#10;                L 1081.60 221.76&#10;                L 1126.4 215.42 L 1126.4 215.42&#10;                L 1173.33 221.76&#10;                L 1267.2 215.42 L 1267.2 215.42&#10;                L 1355.20 222.42&#10;                L 1408 215.42  V 633.60 H 0 V 215.42 Z" fill="#704886"/><path d="M 0 228.096 L 0 228.10&#10;                L 102.00 237.10&#10;                L 140.8 228.10 L 140.8 228.10&#10;                L 190.80 234.43&#10;                L 281.6 228.10 L 281.6 228.10&#10;                L 328.53 234.43&#10;                L 422.40000000000003 228.10 L 422.40000000000003 228.10&#10;                L 471.40 239.10&#10;                L 563.2 228.10 L 563.2 228.10&#10;                L 610.13 235.10&#10;                L 704 228.10 L 704 228.10&#10;                L 807.00 234.43&#10;                L 844.8 228.10 L 844.8000000000001 228.10&#10;                L 945.80 234.43&#10;                L 985.6000000000001 228.10 L 985.6000000000001 228.10&#10;                L 1032.53 237.10&#10;                L 1126.4 228.10 L 1126.4 228.10&#10;                L 1177.40 238.10&#10;                L 1267.2 228.10 L 1267.2 228.10&#10;                L 1314.13 237.10&#10;                L 1408 228.10  V 633.60 H 0 V 228.10 Z" fill="#744c89"/><path d="M 0 240.768 L 0 240.77&#10;                L 46.93 247.10&#10;                L 140.8 240.77 L 140.8 240.77&#10;                L 237.80 247.77&#10;                L 281.6 240.77 L 281.6 240.77&#10;                L 328.53 247.77&#10;                L 422.40000000000003 240.77 L 422.40000000000003 240.77&#10;                L 499.40 247.10&#10;                L 563.2 240.77 L 563.2 240.77&#10;                L 611.20 248.77&#10;                L 704 240.77 L 704 240.77&#10;                L 750.93 247.10&#10;                L 844.8 240.77 L 844.8000000000001 240.77&#10;                L 891.73 247.10&#10;                L 985.6000000000001 240.77 L 985.6000000000001 240.77&#10;                L 1032.53 252.77&#10;                L 1126.4 240.77 L 1126.4 240.77&#10;                L 1228.40 247.10&#10;                L 1267.2 240.77 L 1267.2 240.77&#10;                L 1316.20 247.10&#10;                L 1408 240.77  V 633.60 H 0 V 240.77 Z" fill="#78508c"/><path d="M 0 253.44 L 0 253.44&#10;                L 105.00 260.44&#10;                L 140.8 253.44 L 140.8 253.44&#10;                L 187.73 262.44&#10;                L 281.6 253.44 L 281.6 253.44&#10;                L 328.60 260.44&#10;                L 422.40000000000003 253.44 L 422.40000000000003 253.44&#10;                L 477.40 262.44&#10;                L 563.2 253.44 L 563.2 253.44&#10;                L 651.20 259.78&#10;                L 704 253.44 L 704 253.44&#10;                L 784.00 259.78&#10;                L 844.8 253.44 L 844.8000000000001 253.44&#10;                L 891.73 259.78&#10;                L 985.6000000000001 253.44 L 985.6000000000001 253.44&#10;                L 1048.60 259.78&#10;                L 1126.4 253.44 L 1126.4 253.44&#10;                L 1179.40 259.78&#10;                L 1267.2 253.44 L 1267.2 253.44&#10;                L 1328.20 259.78&#10;                L 1408 253.44  V 633.60 H 0 V 253.44 Z" fill="#7c548f"/><path d="M 0 266.112 L 0 266.11&#10;                L 46.93 274.11&#10;                L 140.8 266.11 L 140.8 266.11&#10;                L 187.73 274.11&#10;                L 281.6 266.11 L 281.6 266.11&#10;                L 328.53 272.45&#10;                L 422.40000000000003 266.11 L 422.40000000000003 266.11&#10;                L 499.40 272.45&#10;                L 563.2 266.11 L 563.2 266.11&#10;                L 610.13 272.45&#10;                L 704 266.11 L 704 266.11&#10;                L 758.00 277.11&#10;                L 844.8 266.11 L 844.8000000000001 266.11&#10;                L 900.80 272.45&#10;                L 985.6000000000001 266.11 L 985.6000000000001 266.11&#10;                L 1039.60 272.45&#10;                L 1126.4 266.11 L 1126.4 266.11&#10;                L 1173.33 272.45&#10;                L 1267.2 266.11 L 1267.2 266.11&#10;                L 1352.20 272.45&#10;                L 1408 266.11  V 633.60 H 0 V 266.11 Z" fill="#805892"/><path d="M 0 278.784 L 0 278.78&#10;                L 46.93 287.78&#10;                L 140.8 278.78 L 140.8 278.78&#10;                L 237.80 285.78&#10;                L 281.6 278.78 L 281.6 278.78&#10;                L 328.53 285.78&#10;                L 422.40000000000003 278.78 L 422.40000000000003 278.78&#10;                L 477.40 285.12&#10;                L 563.2 278.78 L 563.2 278.78&#10;                L 610.13 287.78&#10;                L 704 278.78 L 704 278.78&#10;                L 805.00 285.12&#10;                L 844.8 278.78 L 844.8000000000001 278.78&#10;                L 891.73 285.12&#10;                L 985.6000000000001 278.78 L 985.6000000000001 278.78&#10;                L 1032.53 285.12&#10;                L 1126.4 278.78 L 1126.4 278.78&#10;                L 1198.40 286.78&#10;                L 1267.2 278.78 L 1267.2 278.78&#10;                L 1319.20 285.12&#10;                L 1408 278.78  V 633.60 H 0 V 278.78 Z" fill="#845c95"/><path d="M 0 291.456 L 0 291.46&#10;                L 104.00 302.46&#10;                L 140.8 291.46 L 140.8 291.46&#10;                L 187.73 297.79&#10;                L 281.6 291.46 L 281.6 291.46&#10;                L 328.53 297.79&#10;                L 422.40000000000003 291.46 L 422.40000000000003 291.46&#10;                L 469.33 297.79&#10;                L 563.2 291.46 L 563.2 291.46&#10;                L 610.13 297.79&#10;                L 704 291.46 L 704 291.46&#10;                L 750.93 297.79&#10;                L 844.8 291.46 L 844.8000000000001 291.46&#10;                L 944.80 299.46&#10;                L 985.6000000000001 291.46 L 985.6000000000001 291.46&#10;                L 1084.60 299.46&#10;                L 1126.4 291.46 L 1126.4 291.46&#10;                L 1179.40 297.79&#10;                L 1267.2 291.46 L 1267.2 291.46&#10;                L 1345.20 297.79&#10;                L 1408 291.46  V 633.60 H 0 V 291.46 Z" fill="#886098"/><path d="M 0 304.12800000000004 L 0 304.13&#10;                L 46.93 310.46&#10;                L 140.8 304.13 L 140.8 304.13&#10;                L 187.73 310.46&#10;                L 281.6 304.13 L 281.6 304.13&#10;                L 382.60 310.46&#10;                L 422.40000000000003 304.13 L 422.40000000000003 304.13&#10;                L 517.40 312.13&#10;                L 563.2 304.13 L 563.2 304.13&#10;                L 610.13 316.13&#10;                L 704 304.13 L 704 304.13&#10;                L 750.93 313.13&#10;                L 844.8 304.13 L 844.8000000000001 304.13&#10;                L 891.73 315.13&#10;                L 985.6000000000001 304.13 L 985.6000000000001 304.13&#10;                L 1032.53 310.46&#10;                L 1126.4 304.13 L 1126.4 304.13&#10;                L 1173.33 310.46&#10;                L 1267.2 304.13 L 1267.2 304.13&#10;                L 1314.13 310.46&#10;                L 1408 304.13  V 633.60 H 0 V 304.13 Z" fill="#8c649b"/><path d="M 0 316.8 L 0 316.80&#10;                L 46.93 323.14&#10;                L 140.8 316.80 L 140.8 316.80&#10;                L 187.73 323.14&#10;                L 281.6 316.80 L 281.6 316.80&#10;                L 328.53 325.80&#10;                L 422.40000000000003 316.80 L 422.40000000000003 316.80&#10;                L 469.33 323.14&#10;                L 563.2 316.80 L 563.2 316.80&#10;                L 610.13 324.80&#10;                L 704 316.80 L 704 316.80&#10;                L 750.93 323.14&#10;                L 844.8 316.80 L 844.8000000000001 316.80&#10;                L 891.73 327.80&#10;                L 985.6000000000001 316.80 L 985.6000000000001 316.80&#10;                L 1032.53 323.14&#10;                L 1126.4 316.80 L 1126.4 316.80&#10;                L 1173.33 323.14&#10;                L 1267.2 316.80 L 1267.2 316.80&#10;                L 1314.13 323.80&#10;                L 1408 316.80  V 633.60 H 0 V 316.80 Z" fill="#90689e"/><path d="M 0 329.47200000000004 L 0 329.47&#10;                L 46.93 337.47&#10;                L 140.8 329.47 L 140.8 329.47&#10;                L 187.73 338.47&#10;                L 281.6 329.47 L 281.6 329.47&#10;                L 372.60 340.47&#10;                L 422.40000000000003 329.47 L 422.40000000000003 329.47&#10;                L 487.40 335.81&#10;                L 563.2 329.47 L 563.2 329.47&#10;                L 651.20 335.81&#10;                L 704 329.47 L 704 329.47&#10;                L 792.00 335.81&#10;                L 844.8 329.47 L 844.8000000000001 329.47&#10;                L 907.80 335.81&#10;                L 985.6000000000001 329.47 L 985.6000000000001 329.47&#10;                L 1032.60 335.81&#10;                L 1126.4 329.47 L 1126.4 329.47&#10;                L 1173.33 335.81&#10;                L 1267.2 329.47 L 1267.2 329.47&#10;                L 1319.20 335.81&#10;                L 1408 329.47  V 633.60 H 0 V 329.47 Z" fill="#946ca1"/><path d="M 0 342.144 L 0 342.14&#10;                L 46.93 348.48&#10;                L 140.8 342.14 L 140.8 342.14&#10;                L 187.73 348.48&#10;                L 281.6 342.14 L 281.6 342.14&#10;                L 328.53 352.14&#10;                L 422.40000000000003 342.14 L 422.40000000000003 342.14&#10;                L 480.40 348.48&#10;                L 563.2 342.14 L 563.2 342.14&#10;                L 610.13 348.48&#10;                L 704 342.14 L 704 342.14&#10;                L 792.00 354.14&#10;                L 844.8 342.14 L 844.8000000000001 342.14&#10;                L 921.80 348.48&#10;                L 985.6000000000001 342.14 L 985.6000000000001 342.14&#10;                L 1032.53 348.48&#10;                L 1126.4 342.14 L 1126.4 342.14&#10;                L 1173.33 352.14&#10;                L 1267.2 342.14 L 1267.2 342.14&#10;                L 1314.13 348.48&#10;                L 1408 342.14  V 633.60 H 0 V 342.14 Z" fill="#9870a4"/><path d="M 0 354.81600000000003 L 0 354.82&#10;                L 46.93 361.15&#10;                L 140.8 354.82 L 140.8 354.82&#10;                L 187.73 366.82&#10;                L 281.6 354.82 L 281.6 354.82&#10;                L 328.53 361.15&#10;                L 422.40000000000003 354.82 L 422.40000000000003 354.82&#10;                L 469.33 366.82&#10;                L 563.2 354.82 L 563.2 354.82&#10;                L 668.20 361.15&#10;                L 704 354.82 L 704 354.82&#10;                L 750.93 361.15&#10;                L 844.8 354.82 L 844.8000000000001 354.82&#10;                L 930.80 361.15&#10;                L 985.6000000000001 354.82 L 985.6000000000001 354.82&#10;                L 1036.60 361.15&#10;                L 1126.4 354.82 L 1126.4 354.82&#10;                L 1229.40 361.15&#10;                L 1267.2 354.82 L 1267.2 354.82&#10;                L 1330.20 365.82&#10;                L 1408 354.82  V 633.60 H 0 V 354.82 Z" fill="#9c74a7"/><path d="M 0 367.488 L 0 367.49&#10;                L 46.93 373.82&#10;                L 140.8 367.49 L 140.8 367.49&#10;                L 191.80 378.49&#10;                L 281.6 367.49 L 281.6 367.49&#10;                L 377.60 375.49&#10;                L 422.40000000000003 367.49 L 422.40000000000003 367.49&#10;                L 515.40 373.82&#10;                L 563.2 367.49 L 563.2 367.49&#10;                L 651.20 373.82&#10;                L 704 367.49 L 704 367.49&#10;                L 770.00 375.49&#10;                L 844.8 367.49 L 844.8000000000001 367.49&#10;                L 892.80 376.49&#10;                L 985.6000000000001 367.49 L 985.6000000000001 367.49&#10;                L 1073.60 376.49&#10;                L 1126.4 367.49 L 1126.4 367.49&#10;                L 1173.33 373.82&#10;                L 1267.2 367.49 L 1267.2 367.49&#10;                L 1346.20 373.82&#10;                L 1408 367.49  V 633.60 H 0 V 367.49 Z" fill="#a078aa"/><path d="M 0 380.16 L 0 380.16&#10;                L 46.93 386.50&#10;                L 140.8 380.16 L 140.8 380.16&#10;                L 187.73 392.16&#10;                L 281.6 380.16 L 281.6 380.16&#10;                L 328.53 386.50&#10;                L 422.40000000000003 380.16 L 422.40000000000003 380.16&#10;                L 477.40 391.16&#10;                L 563.2 380.16 L 563.2 380.16&#10;                L 622.20 386.50&#10;                L 704 380.16 L 704 380.16&#10;                L 788.00 387.16&#10;                L 844.8 380.16 L 844.8000000000001 380.16&#10;                L 891.73 386.50&#10;                L 985.6000000000001 380.16 L 985.6000000000001 380.16&#10;                L 1034.60 386.50&#10;                L 1126.4 380.16 L 1126.4 380.16&#10;                L 1173.33 386.50&#10;                L 1267.2 380.16 L 1267.2 380.16&#10;                L 1368.20 388.16&#10;                L 1408 380.16  V 633.60 H 0 V 380.16 Z" fill="#a47cad"/><path d="M 0 392.832 L 0 392.83&#10;                L 46.93 400.83&#10;                L 140.8 392.83 L 140.8 392.83&#10;                L 187.73 400.83&#10;                L 281.6 392.83 L 281.6 392.83&#10;                L 328.53 402.83&#10;                L 422.40000000000003 392.83 L 422.40000000000003 392.83&#10;                L 469.33 399.17&#10;                L 563.2 392.83 L 563.2 392.83&#10;                L 610.13 399.17&#10;                L 704 392.83 L 704 392.83&#10;                L 750.93 404.83&#10;                L 844.8 392.83 L 844.8000000000001 392.83&#10;                L 891.73 400.83&#10;                L 985.6000000000001 392.83 L 985.6000000000001 392.83&#10;                L 1071.60 400.83&#10;                L 1126.4 392.83 L 1126.4 392.83&#10;                L 1173.33 403.83&#10;                L 1267.2 392.83 L 1267.2 392.83&#10;                L 1320.20 399.17&#10;                L 1408 392.83  V 633.60 H 0 V 392.83 Z" fill="#a880b0"/><path d="M 0 405.504 L 0 405.50&#10;                L 101.00 411.84&#10;                L 140.8 405.50 L 140.8 405.50&#10;                L 205.80 411.84&#10;                L 281.6 405.50 L 281.6 405.50&#10;                L 328.53 411.84&#10;                L 422.40000000000003 405.50 L 422.40000000000003 405.50&#10;                L 494.40 414.50&#10;                L 563.2 405.50 L 563.2 405.50&#10;                L 649.20 411.84&#10;                L 704 405.50 L 704 405.50&#10;                L 750.93 414.50&#10;                L 844.8 405.50 L 844.8000000000001 405.50&#10;                L 891.73 411.84&#10;                L 985.6000000000001 405.50 L 985.6000000000001 405.50&#10;                L 1048.60 411.84&#10;                L 1126.4 405.50 L 1126.4 405.50&#10;                L 1173.33 411.84&#10;                L 1267.2 405.50 L 1267.2 405.50&#10;                L 1314.13 411.84&#10;                L 1408 405.50  V 633.60 H 0 V 405.50 Z" fill="#ac84b3"/><path d="M 0 418.17600000000004 L 0 418.18&#10;                L 46.93 428.18&#10;                L 140.8 418.18 L 140.8 418.18&#10;                L 187.73 424.51&#10;                L 281.6 418.18 L 281.6 418.18&#10;                L 328.53 424.51&#10;                L 422.40000000000003 418.18 L 422.40000000000003 418.18&#10;                L 516.40 424.51&#10;                L 563.2 418.18 L 563.2 418.18&#10;                L 610.13 430.18&#10;                L 704 418.18 L 704 418.18&#10;                L 750.93 424.51&#10;                L 844.8 418.18 L 844.8000000000001 418.18&#10;                L 891.73 424.51&#10;                L 985.6000000000001 418.18 L 985.6000000000001 418.18&#10;                L 1069.60 429.18&#10;                L 1126.4 418.18 L 1126.4 418.18&#10;                L 1173.40 424.51&#10;                L 1267.2 418.18 L 1267.2 418.18&#10;                L 1314.13 428.18&#10;                L 1408 418.18  V 633.60 H 0 V 418.18 Z" fill="#b088b6"/><path d="M 0 430.848 L 0 430.85&#10;                L 58.00 437.18&#10;                L 140.8 430.85 L 140.8 430.85&#10;                L 187.73 437.18&#10;                L 281.6 430.85 L 281.6 430.85&#10;                L 341.60 437.18&#10;                L 422.40000000000003 430.85 L 422.40000000000003 430.85&#10;                L 508.40 438.85&#10;                L 563.2 430.85 L 563.2 430.85&#10;                L 610.13 440.85&#10;                L 704 430.85 L 704 430.85&#10;                L 768.00 437.18&#10;                L 844.8 430.85 L 844.8000000000001 430.85&#10;                L 891.73 437.18&#10;                L 985.6000000000001 430.85 L 985.6000000000001 430.85&#10;                L 1053.60 437.18&#10;                L 1126.4 430.85 L 1126.4 430.85&#10;                L 1213.40 437.18&#10;                L 1267.2 430.85 L 1267.2 430.85&#10;                L 1314.13 438.85&#10;                L 1408 430.85  V 633.60 H 0 V 430.85 Z" fill="#b48cb9"/><path d="M 0 443.52000000000004 L 0 443.52&#10;                L 59.00 449.86&#10;                L 140.8 443.52 L 140.8 443.52&#10;                L 189.80 451.52&#10;                L 281.6 443.52 L 281.6 443.52&#10;                L 340.60 454.52&#10;                L 422.40000000000003 443.52 L 422.40000000000003 443.52&#10;                L 499.40 452.52&#10;                L 563.2 443.52 L 563.2 443.52&#10;                L 610.13 454.52&#10;                L 704 443.52 L 704 443.52&#10;                L 779.00 452.52&#10;                L 844.8 443.52 L 844.8000000000001 443.52&#10;                L 915.80 449.86&#10;                L 985.6000000000001 443.52 L 985.6000000000001 443.52&#10;                L 1032.53 449.86&#10;                L 1126.4 443.52 L 1126.4 443.52&#10;                L 1173.33 449.86&#10;                L 1267.2 443.52 L 1267.2 443.52&#10;                L 1314.13 449.86&#10;                L 1408 443.52  V 633.60 H 0 V 443.52 Z" fill="#b890bc"/><path d="M 0 456.192 L 0 456.19&#10;                L 102.00 463.19&#10;                L 140.8 456.19 L 140.8 456.19&#10;                L 187.73 463.19&#10;                L 281.6 456.19 L 281.6 456.19&#10;                L 335.60 462.53&#10;                L 422.40000000000003 456.19 L 422.40000000000003 456.19&#10;                L 518.40 462.53&#10;                L 563.2 456.19 L 563.2 456.19&#10;                L 610.13 464.19&#10;                L 704 456.19 L 704 456.19&#10;                L 797.00 466.19&#10;                L 844.8 456.19 L 844.8000000000001 456.19&#10;                L 891.73 462.53&#10;                L 985.6000000000001 456.19 L 985.6000000000001 456.19&#10;                L 1071.60 464.19&#10;                L 1126.4 456.19 L 1126.4 456.19&#10;                L 1173.33 462.53&#10;                L 1267.2 456.19 L 1267.2 456.19&#10;                L 1314.13 462.53&#10;                L 1408 456.19  V 633.60 H 0 V 456.19 Z" fill="#bc94bf"/><path d="M 0 468.86400000000003 L 0 468.86&#10;                L 46.93 475.20&#10;                L 140.8 468.86 L 140.8 468.86&#10;                L 187.73 475.20&#10;                L 281.6 468.86 L 281.6 468.86&#10;                L 338.60 475.20&#10;                L 422.40000000000003 468.86 L 422.40000000000003 468.86&#10;                L 469.33 475.20&#10;                L 563.2 468.86 L 563.2 468.86&#10;                L 620.20 475.20&#10;                L 704 468.86 L 704 468.86&#10;                L 750.93 475.20&#10;                L 844.8 468.86 L 844.8000000000001 468.86&#10;                L 921.80 475.86&#10;                L 985.6000000000001 468.86 L 985.6000000000001 468.86&#10;                L 1033.60 475.20&#10;                L 1126.4 468.86 L 1126.4 468.86&#10;                L 1230.40 475.20&#10;                L 1267.2 468.86 L 1267.2 468.86&#10;                L 1316.20 475.20&#10;                L 1408 468.86  V 633.60 H 0 V 468.86 Z" fill="#c098c2"/><path d="M 0 481.536 L 0 481.54&#10;                L 67.00 491.54&#10;                L 140.8 481.54 L 140.8 481.54&#10;                L 226.80 487.87&#10;                L 281.6 481.54 L 281.6 481.54&#10;                L 328.53 491.54&#10;                L 422.40000000000003 481.54 L 422.40000000000003 481.54&#10;                L 469.33 487.87&#10;                L 563.2 481.54 L 563.2 481.54&#10;                L 610.13 487.87&#10;                L 704 481.54 L 704 481.54&#10;                L 757.00 487.87&#10;                L 844.8 481.54 L 844.8000000000001 481.54&#10;                L 891.73 487.87&#10;                L 985.6000000000001 481.54 L 985.6000000000001 481.54&#10;                L 1032.53 487.87&#10;                L 1126.4 481.54 L 1126.4 481.54&#10;                L 1218.40 491.54&#10;                L 1267.2 481.54 L 1267.2 481.54&#10;                L 1352.20 487.87&#10;                L 1408 481.54  V 633.60 H 0 V 481.54 Z" fill="#c49cc5"/><path d="M 0 494.208 L 0 494.21&#10;                L 46.93 500.54&#10;                L 140.8 494.21 L 140.8 494.21&#10;                L 187.73 503.21&#10;                L 281.6 494.21 L 281.6 494.21&#10;                L 328.53 501.21&#10;                L 422.40000000000003 494.21 L 422.40000000000003 494.21&#10;                L 500.40 503.21&#10;                L 563.2 494.21 L 563.2 494.21&#10;                L 610.13 500.54&#10;                L 704 494.21 L 704 494.21&#10;                L 804.00 500.54&#10;                L 844.8 494.21 L 844.8000000000001 494.21&#10;                L 920.80 500.54&#10;                L 985.6000000000001 494.21 L 985.6000000000001 494.21&#10;                L 1043.60 500.54&#10;                L 1126.4 494.21 L 1126.4 494.21&#10;                L 1227.40 500.54&#10;                L 1267.2 494.21 L 1267.2 494.21&#10;                L 1334.20 500.54&#10;                L 1408 494.21  V 633.60 H 0 V 494.21 Z" fill="#c8a0c8"/><path d="M 0 506.88 L 0 506.88&#10;                L 59.00 513.88&#10;                L 140.8 506.88 L 140.8 506.88&#10;                L 187.73 513.22&#10;                L 281.6 506.88 L 281.6 506.88&#10;                L 328.53 516.88&#10;                L 422.40000000000003 506.88 L 422.40000000000003 506.88&#10;                L 469.33 513.22&#10;                L 563.2 506.88 L 563.2 506.88&#10;                L 610.13 513.22&#10;                L 704 506.88 L 704 506.88&#10;                L 809.00 514.88&#10;                L 844.8 506.88 L 844.8000000000001 506.88&#10;                L 891.73 515.88&#10;                L 985.6000000000001 506.88 L 985.6000000000001 506.88&#10;                L 1041.60 515.88&#10;                L 1126.4 506.88 L 1126.4 506.88&#10;                L 1199.40 518.88&#10;                L 1267.2 506.88 L 1267.2 506.88&#10;                L 1344.20 513.22&#10;                L 1408 506.88  V 633.60 H 0 V 506.88 Z" fill="#cca4cb"/><path d="M 0 519.552 L 0 519.55&#10;                L 65.00 525.89&#10;                L 140.8 519.55 L 140.8 519.55&#10;                L 199.80 529.55&#10;                L 281.6 519.55 L 281.6 519.55&#10;                L 367.60 529.55&#10;                L 422.40000000000003 519.55 L 422.40000000000003 519.55&#10;                L 515.40 525.89&#10;                L 563.2 519.55 L 563.2 519.55&#10;                L 628.20 525.89&#10;                L 704 519.55 L 704 519.55&#10;                L 759.00 525.89&#10;                L 844.8 519.55 L 844.8000000000001 519.55&#10;                L 909.80 528.55&#10;                L 985.6000000000001 519.55 L 985.6000000000001 519.55&#10;                L 1069.60 526.55&#10;                L 1126.4 519.55 L 1126.4 519.55&#10;                L 1180.40 525.89&#10;                L 1267.2 519.55 L 1267.2 519.55&#10;                L 1314.13 525.89&#10;                L 1408 519.55  V 633.60 H 0 V 519.55 Z" fill="#d0a8ce"/><path d="M 0 532.224 L 0 532.22&#10;                L 84.00 539.22&#10;                L 140.8 532.22 L 140.8 532.22&#10;                L 187.73 542.22&#10;                L 281.6 532.22 L 281.6 532.22&#10;                L 350.60 542.22&#10;                L 422.40000000000003 532.22 L 422.40000000000003 532.22&#10;                L 518.40 542.22&#10;                L 563.2 532.22 L 563.2 532.22&#10;                L 614.20 542.22&#10;                L 704 532.22 L 704 532.22&#10;                L 794.00 539.22&#10;                L 844.8 532.22 L 844.8000000000001 532.22&#10;                L 891.73 542.22&#10;                L 985.6000000000001 532.22 L 985.6000000000001 532.22&#10;                L 1040.60 543.22&#10;                L 1126.4 532.22 L 1126.4 532.22&#10;                L 1173.33 541.22&#10;                L 1267.2 532.22 L 1267.2 532.22&#10;                L 1314.13 538.56&#10;                L 1408 532.22  V 633.60 H 0 V 532.22 Z" fill="#d4acd1"/><path d="M 0 544.8960000000001 L 0 544.90&#10;                L 48.00 551.23&#10;                L 140.8 544.90 L 140.8 544.90&#10;                L 187.73 551.23&#10;                L 281.6 544.90 L 281.6 544.90&#10;                L 359.60 551.23&#10;                L 422.40000000000003 544.90 L 422.40000000000003 544.90&#10;                L 469.33 551.23&#10;                L 563.2 544.90 L 563.2 544.90&#10;                L 610.13 551.23&#10;                L 704 544.90 L 704 544.90&#10;                L 787.00 551.23&#10;                L 844.8 544.90 L 844.8000000000001 544.90&#10;                L 941.80 553.90&#10;                L 985.6000000000001 544.90 L 985.6000000000001 544.90&#10;                L 1032.53 551.23&#10;                L 1126.4 544.90 L 1126.4 544.90&#10;                L 1173.33 554.90&#10;                L 1267.2 544.90 L 1267.2 544.90&#10;                L 1322.20 551.90&#10;                L 1408 544.90  V 633.60 H 0 V 544.90 Z" fill="#d8b0d4"/><path d="M 0 557.568 L 0 557.57&#10;                L 97.00 563.90&#10;                L 140.8 557.57 L 140.8 557.57&#10;                L 187.73 564.57&#10;                L 281.6 557.57 L 281.6 557.57&#10;                L 361.60 563.90&#10;                L 422.40000000000003 557.57 L 422.40000000000003 557.57&#10;                L 471.40 563.90&#10;                L 563.2 557.57 L 563.2 557.57&#10;                L 610.13 569.57&#10;                L 704 557.57 L 704 557.57&#10;                L 750.93 567.57&#10;                L 844.8 557.57 L 844.8000000000001 557.57&#10;                L 891.73 563.90&#10;                L 985.6000000000001 557.57 L 985.6000000000001 557.57&#10;                L 1032.60 568.57&#10;                L 1126.4 557.57 L 1126.4 557.57&#10;                L 1201.40 563.90&#10;                L 1267.2 557.57 L 1267.2 557.57&#10;                L 1314.13 563.90&#10;                L 1408 557.57  V 633.60 H 0 V 557.57 Z" fill="#dcb4d7"/><path d="M 0 570.24 L 0 570.24&#10;                L 47.00 582.24&#10;                L 140.8 570.24 L 140.8 570.24&#10;                L 187.73 579.24&#10;                L 281.6 570.24 L 281.6 570.24&#10;                L 328.53 576.58&#10;                L 422.40000000000003 570.24 L 422.40000000000003 570.24&#10;                L 519.40 581.24&#10;                L 563.2 570.24 L 563.2 570.24&#10;                L 663.20 576.58&#10;                L 704 570.24 L 704 570.24&#10;                L 750.93 581.24&#10;                L 844.8 570.24 L 844.8000000000001 570.24&#10;                L 943.80 581.24&#10;                L 985.6000000000001 570.24 L 985.6000000000001 570.24&#10;                L 1032.53 576.58&#10;                L 1126.4 570.24 L 1126.4 570.24&#10;                L 1173.33 576.58&#10;                L 1267.2 570.24 L 1267.2 570.24&#10;                L 1324.20 580.24&#10;                L 1408 570.24  V 633.60 H 0 V 570.24 Z" fill="#e0b8da"/><path d="M 0 582.912 L 0 582.91&#10;                L 46.93 589.25&#10;                L 140.8 582.91 L 140.8 582.91&#10;                L 218.80 591.91&#10;                L 281.6 582.91 L 281.6 582.91&#10;                L 328.53 594.91&#10;                L 422.40000000000003 582.91 L 422.40000000000003 582.91&#10;                L 514.40 589.25&#10;                L 563.2 582.91 L 563.2 582.91&#10;                L 610.13 589.25&#10;                L 704 582.91 L 704 582.91&#10;                L 750.93 589.25&#10;                L 844.8 582.91 L 844.8000000000001 582.91&#10;                L 892.80 589.25&#10;                L 985.6000000000001 582.91 L 985.6000000000001 582.91&#10;                L 1032.53 594.91&#10;                L 1126.4 582.91 L 1126.4 582.91&#10;                L 1227.40 592.91&#10;                L 1267.2 582.91 L 1267.2 582.91&#10;                L 1314.13 593.91&#10;                L 1408 582.91  V 633.60 H 0 V 582.91 Z" fill="#e4bcdd"/><path d="M 0 595.5840000000001 L 0 595.58&#10;                L 46.93 604.58&#10;                L 140.8 595.58 L 140.8 595.58&#10;                L 187.73 601.92&#10;                L 281.6 595.58 L 281.6 595.58&#10;                L 328.53 601.92&#10;                L 422.40000000000003 595.58 L 422.40000000000003 595.58&#10;                L 469.33 601.92&#10;                L 563.2 595.58 L 563.2 595.58&#10;                L 610.13 601.92&#10;                L 704 595.58 L 704 595.58&#10;                L 774.00 603.58&#10;                L 844.8 595.58 L 844.8000000000001 595.58&#10;                L 891.73 607.58&#10;                L 985.6000000000001 595.58 L 985.6000000000001 595.58&#10;                L 1051.60 605.58&#10;                L 1126.4 595.58 L 1126.4 595.58&#10;                L 1205.40 601.92&#10;                L 1267.2 595.58 L 1267.2 595.58&#10;                L 1367.20 603.58&#10;                L 1408 595.58  V 633.60 H 0 V 595.58 Z" fill="#e8c0e0"/><path d="M 0 608.2560000000001 L 0 608.26&#10;                L 48.00 614.59&#10;                L 140.8 608.26 L 140.8 608.26&#10;                L 206.80 620.26&#10;                L 281.6 608.26 L 281.6 608.26&#10;                L 328.53 614.59&#10;                L 422.40000000000003 608.26 L 422.40000000000003 608.26&#10;                L 478.40 614.59&#10;                L 563.2 608.26 L 563.2 608.26&#10;                L 610.13 618.26&#10;                L 704 608.26 L 704 608.26&#10;                L 750.93 619.26&#10;                L 844.8 608.26 L 844.8000000000001 608.26&#10;                L 891.73 614.59&#10;                L 985.6000000000001 608.26 L 985.6000000000001 608.26&#10;                L 1032.53 614.59&#10;                L 1126.4 608.26 L 1126.4 608.26&#10;                L 1173.33 614.59&#10;                L 1267.2 608.26 L 1267.2 608.26&#10;                L 1314.13 614.59&#10;                L 1408 608.26  V 633.60 H 0 V 608.26 Z" fill="#ecc4e3"/><path d="M 0 620.928 L 0 620.93&#10;                L 46.93 628.93&#10;                L 140.8 620.93 L 140.8 620.93&#10;                L 232.80 627.26&#10;                L 281.6 620.93 L 281.6 620.93&#10;                L 351.60 628.93&#10;                L 422.40000000000003 620.93 L 422.40000000000003 620.93&#10;                L 518.40 627.26&#10;                L 563.2 620.93 L 563.2 620.93&#10;                L 610.13 627.26&#10;                L 704 620.93 L 704 620.93&#10;                L 790.00 627.93&#10;                L 844.8 620.93 L 844.8000000000001 620.93&#10;                L 891.73 627.26&#10;                L 985.6000000000001 620.93 L 985.6000000000001 620.93&#10;                L 1040.60 629.93&#10;                L 1126.4 620.93 L 1126.4 620.93&#10;                L 1184.40 627.26&#10;                L 1267.2 620.93 L 1267.2 620.93&#10;                L 1314.13 631.93&#10;                L 1408 620.93  V 633.60 H 0 V 620.93 Z" fill="#f0c8e6"/></svg>