<svg id="visual" viewBox="0 0 900 450" width="900" height="450" xmlns="http://www.w3.org/2000/svg" xmlns:xlink="http://www.w3.org/1999/xlink" version="1.1"><path d="M0 78L82 33L164 87L245 33L327 42L409 46L491 64L573 91L655 73L736 46L818 69L900 55L900 0L818 0L736 0L655 0L573 0L491 0L409 0L327 0L245 0L164 0L82 0L0 0Z" fill="#46104e"></path><path d="M0 154L82 177L164 258L245 199L327 127L409 213L491 195L573 186L655 154L736 168L818 136L900 199L900 53L818 67L736 44L655 71L573 89L491 62L409 44L327 40L245 31L164 85L82 31L0 76Z" fill="#3c0f46"></path><path d="M0 303L82 280L164 348L245 285L327 370L409 339L491 271L573 316L655 357L736 370L818 289L900 334L900 197L818 134L736 166L655 152L573 184L491 193L409 211L327 125L245 197L164 256L82 175L0 152Z" fill="#320d3e"></path><path d="M0 415L82 402L164 415L245 384L327 420L409 406L491 379L573 420L655 397L736 424L818 393L900 397L900 332L818 287L736 368L655 355L573 314L491 269L409 337L327 368L245 283L164 346L82 278L0 301Z" fill="#290b35"></path><path d="M0 451L82 451L164 451L245 451L327 451L409 451L491 451L573 451L655 451L736 451L818 451L900 451L900 395L818 391L736 422L655 395L573 418L491 377L409 404L327 418L245 382L164 413L82 400L0 413Z" fill="#21082d"></path></svg>